<svg width="185" height="28" viewBox="0 0 185 28" fill="none" xmlns="http://www.w3.org/2000/svg">
<g id="Logo">
<path id="Vector" d="M28.9763 4.83434C26.1947 4.83434 23.9431 2.67169 23.9431 0L34.0127 0C34.0127 2.67169 31.7579 4.83434 28.9795 4.83434H28.9763ZM24.7835 8.53916L24.7835 27.997H33.1691V8.54217H24.7835V8.53916ZM36.9856 27.997L45.3712 27.997V21.247H46.8074C54.5533 21.247 58.7084 16.1837 58.7084 10.506C58.7084 4.82831 54.4372 0 46.8106 0L36.9856 0V28V27.997ZM46.6883 7.28615C48.5667 7.28615 50.1629 8.39759 50.1629 10.5452C50.1629 12.6928 48.5667 13.8042 46.6883 13.8042H45.3712V7.28313H46.6883V7.28615ZM60.9506 27.997L77.8033 27.997V20.2892L69.3362 20.2892V0L60.9506 0V28V27.997ZM95.5341 27.997L112.826 27.997V20.6717H103.841V17.6024H112.826V10.238L103.841 10.238V7.36145L112.826 7.36145V0L95.5341 0V28V27.997ZM116.645 27.997H124.953V17.6024L133.457 17.6024V10.238H124.953V7.36145L133.457 7.36145V0L116.645 0V28V27.997ZM136.938 27.997H154.23V20.6717H145.245V17.6024H154.23V10.238L145.245 10.238V7.36145L154.23 7.36145V0L136.938 0V28V27.997ZM13.1554 27.997L9.67132 21.247H8.38557L8.38557 27.997H0L0 0L9.82498 0C17.4516 0 21.726 4.83133 21.726 10.509C21.726 13.9307 20.2176 17.1235 17.3231 19.1265L22.5445 28L13.1585 28L13.1554 27.997ZM8.38244 13.8042H9.69954C11.578 13.8042 13.1742 12.7289 13.1742 10.5452C13.1742 8.36145 11.578 7.28615 9.69954 7.28615H8.38244V13.8072V13.8042ZM184.166 27.997L173.522 13.744L183.793 0L173.569 0L166.36 9.65361V0L158.053 0V28L166.36 28V17.8434L173.946 28H184.169L184.166 27.997Z" fill="#112727"/>
</g>
</svg>
