<svg width="936" height="143" viewBox="0 0 936 143" fill="none" xmlns="http://www.w3.org/2000/svg">
<path d="M147.266 25.2648C133.129 25.2648 121.686 14.2736 121.686 0.695312L172.862 0.695312C172.862 14.2736 161.403 25.2648 147.282 25.2648H147.266ZM125.957 44.0938L125.957 142.984H168.575L168.575 44.1091L125.957 44.1091V44.0938ZM187.971 142.984H230.589L230.589 108.679H237.889C277.255 108.679 298.373 82.9457 298.373 54.09C298.373 25.2342 276.666 0.695312 237.905 0.695312L187.971 0.695312L187.971 142.999V142.984ZM237.283 37.7256C246.83 37.7256 254.942 43.3743 254.942 54.289C254.942 65.2036 246.83 70.8523 237.283 70.8523H230.589V37.7103H237.283V37.7256ZM309.769 142.984L395.419 142.984V103.811H352.387V0.695312L309.769 0.695312V142.999V142.984ZM485.532 142.984H573.413V105.755H527.751V90.1558H573.413V52.7275L527.751 52.7275V38.1083L573.413 38.1083V0.695312L485.532 0.695312V142.999V142.984ZM592.825 142.984H635.045V90.1558L678.268 90.1558V52.7275L635.045 52.7275V38.1083L678.268 38.1083V0.695312L592.825 0.695312V142.999V142.984ZM695.959 142.984H783.841V105.755L738.179 105.755V90.1558L783.841 90.1558V52.7275L738.179 52.7275V38.1083L783.841 38.1083V0.695312L695.959 0.695312V142.999V142.984ZM66.8594 142.984L49.1524 108.679H42.6179V142.984H0L0 0.695312L49.9334 0.695312C88.6943 0.695312 110.418 25.2495 110.418 54.1053C110.418 71.4953 102.752 87.7218 88.0409 97.9017L114.577 142.999H66.8754L66.8594 142.984ZM42.602 70.8523H49.2959C58.8427 70.8523 66.955 65.3873 66.955 54.289C66.955 43.1906 58.8427 37.7256 49.2959 37.7256H42.602V70.8676V70.8523ZM935.984 142.984L881.891 70.5462L934.087 0.695312L882.13 0.695312L845.489 49.7578V0.695312L803.269 0.695312V142.999L845.489 142.999V91.3805L884.042 142.999H936L935.984 142.984Z" fill="#112727"/>
</svg>
