<svg xmlns="http://www.w3.org/2000/svg" width="917" height="140" viewBox="0 0 917 140" fill="none">
<path d="M144.277 24.0708C130.427 24.0708 119.216 13.3027 119.216 0L169.353 0C169.353 13.3027 158.127 24.0708 144.292 24.0708H144.277ZM123.4 42.5175L123.4 139.4H165.153L165.153 42.5325L123.4 42.5325V42.5175ZM184.156 139.4H225.909L225.909 105.791H233.06C271.627 105.791 292.316 80.5808 292.316 52.3108C292.316 24.0408 271.05 0 233.076 0L184.156 0L184.156 139.415V139.4ZM232.467 36.2786C241.82 36.2786 249.767 41.8126 249.767 52.5057C249.767 63.1989 241.82 68.7329 232.467 68.7329H225.909V36.2636H232.467V36.2786ZM303.481 139.4L387.392 139.4V101.022H345.233V0L303.481 0V139.415V139.4ZM475.676 139.4H561.773V102.927L517.038 102.927V87.6445L561.773 87.6445V50.976L517.038 50.976V36.6535L561.773 36.6535V0L475.676 0V139.415V139.4ZM580.792 139.4H622.154V87.6445L664.5 87.6445V50.976H622.154V36.6535H664.5V0L580.792 0V139.415V139.4ZM681.832 139.4H767.93V102.927L723.195 102.927V87.6445L767.93 87.6445V50.976L723.195 50.976V36.6535L767.93 36.6535V0L681.832 0V139.415V139.4ZM65.5022 139.4L48.1547 105.791H41.7528V139.4H0L0 0L48.9198 0C86.8939 0 108.176 24.0558 108.176 52.3258C108.176 69.3628 100.666 85.26 86.2537 95.2332L112.252 139.415H65.5178L65.5022 139.4ZM41.7372 68.7329H48.2952C57.6482 68.7329 65.5959 63.3788 65.5959 52.5057C65.5959 41.6327 57.6482 36.2786 48.2952 36.2786H41.7372V68.7479V68.7329ZM916.984 139.4L863.989 68.4329L915.126 0L864.223 0L828.326 48.0665V0L786.964 0V139.415L828.326 139.415V88.8443L866.097 139.415H917L916.984 139.4Z" fill="#F6F2E9"/>
</svg>